<svg width="32" height="32" viewBox="0 0 32 32" fill="none" xmlns="http://www.w3.org/2000/svg">
<path d="M26.0883 3.80093L26.5103 4.01332C26.3724 3.93332 26.2317 3.86438 26.0883 3.80093Z" fill="#140A46" stroke="white" stroke-width="0.827586" stroke-linecap="round" stroke-linejoin="round"/>
<path d="M28.8386 6.63677C28.2675 5.44781 27.4896 4.57057 26.5103 4.01332L26.0883 3.80094L26.0551 3.78712C25.1779 3.39263 24.1765 3.24367 23.051 3.33746C23.0455 3.33746 23.04 3.33746 23.0344 3.34022C21.7131 3.44781 20.3007 3.93884 18.8 4.80505C17.2938 5.67677 15.8758 6.82163 14.5517 8.24508C14.4165 8.39128 14.2813 8.53746 14.1517 8.68643C12.9903 9.98574 11.9696 11.3982 11.0896 12.9154C10.1103 14.6064 9.33514 16.3775 8.76135 18.2285C8.22341 19.9719 7.93657 21.6657 7.90623 23.3016C7.90347 23.4037 7.90344 23.503 7.90344 23.6023C7.90344 25.3319 8.19031 26.7913 8.76135 27.9829C8.85238 28.1705 8.94617 28.3498 9.04824 28.5208C9.58341 29.4395 10.2648 30.1374 11.0896 30.6063C12.0717 31.1663 13.2248 31.3926 14.5517 31.2822C15.8758 31.1746 17.2938 30.6836 18.8 29.8146C20.3062 28.9429 21.7241 27.7981 23.051 26.3747C24.3752 24.954 25.5283 23.3954 26.5103 21.7044C27.4896 20.0133 28.2675 18.2423 28.8386 16.3913C29.4096 14.5402 29.6965 12.7471 29.6965 11.0175C29.6965 9.28781 29.4096 7.8285 28.8386 6.63677ZM25.3379 13.6299L22.56 22.6423L15.531 26.7003C14.9324 27.0451 14.4193 27.0975 13.9917 26.8547C13.931 26.8188 13.8731 26.7803 13.8207 26.7306C13.5062 26.4713 13.3517 26.0465 13.3517 25.4561V18.5182L16.3172 13.0975L18.5544 9.00646L18.8 8.5568L19.0621 8.71401L19.8207 9.16643L19.9724 9.25746L19.8207 10.3499L19.6883 11.2988L19.2358 14.5568L22.9296 12.4244L23.7683 11.9416L25.3379 11.034V13.6299Z" fill="#140A46" stroke="white" stroke-width="0.827586" stroke-linecap="round" stroke-linejoin="round"/>
<path d="M22.5601 22.6423L15.5311 26.7003C14.9325 27.0451 14.4194 27.0975 13.9918 26.8547C13.9311 26.8189 13.8732 26.7802 13.8208 26.7306C13.5063 26.4713 13.3518 26.0465 13.3518 25.4561V22.0133L17.0428 19.8837L22.5601 22.6423Z" fill="#140A46" stroke="white" stroke-width="0.827586" stroke-linecap="round" stroke-linejoin="round"/>
<path d="M25.3379 13.6299L22.56 22.6423L17.0427 19.8837L18.7586 14.3168L19.2358 14.5568L22.9297 12.4244L23.5751 12.7471L25.3379 13.6299Z" fill="#140A46" stroke="white" stroke-width="0.827586" stroke-linecap="round" stroke-linejoin="round"/>
<path d="M19.9724 9.25746L19.8207 10.3499L19.6883 11.2989L19.2359 14.5568L18.7586 14.3168L16.3173 13.0975L18.5545 9.00645L18.8 8.55679L19.0621 8.71403L19.8207 9.16645L19.9724 9.25746Z" fill="#140A46" stroke="white" stroke-width="0.827586" stroke-linecap="round" stroke-linejoin="round"/>
<path d="M25.338 11.034V13.6299L23.5752 12.7471L22.9297 12.4244L23.7683 11.9416L25.338 11.034Z" fill="#140A46" stroke="white" stroke-width="0.827586" stroke-linecap="round" stroke-linejoin="round"/>
<path d="M26.0552 3.78712C25.1779 3.39263 24.1766 3.24367 23.051 3.33746C23.0455 3.33746 23.04 3.33746 23.0345 3.34022C21.7131 3.44781 20.3007 3.93884 18.8 4.80505C17.2938 5.67677 15.8758 6.8216 14.5517 8.24505C14.4165 8.39125 14.2814 8.53746 14.1517 8.68643C12.9903 9.98574 11.9696 11.3982 11.0896 12.9154C10.1103 14.6064 9.33516 16.3775 8.76136 18.2285C8.22343 19.9719 7.93659 21.6657 7.90624 23.3016C7.90349 23.4037 7.90346 23.503 7.90346 23.6023C7.90346 25.3319 8.19033 26.7913 8.76136 27.9829C8.8524 28.1705 8.94619 28.3498 9.04826 28.5208C9.58343 29.4394 10.2648 30.1374 11.0896 30.6063L6.0276 28.0739L5.99447 28.0601C5.85102 27.9967 5.71033 27.9277 5.5724 27.8477C4.59309 27.2906 3.81792 26.4133 3.24412 25.2244C2.67309 24.0326 2.38623 22.5733 2.38623 20.8437C2.38623 19.114 2.67309 17.3209 3.24412 15.4699C3.81792 13.6188 4.59309 11.8478 5.5724 10.1568C6.55447 8.46574 7.70757 6.90712 9.03447 5.48643C10.3586 4.06298 11.7766 2.91815 13.2828 2.04641C14.789 1.17745 16.2069 0.68643 17.5338 0.578844C18.8579 0.468499 20.011 0.694692 20.9931 1.25469L26.0552 3.78712Z" fill="#140A46" stroke="white" stroke-width="0.827586" stroke-linecap="round" stroke-linejoin="round"/>
</svg>
