<svg width="16" height="16" viewBox="0 0 16 16" fill="none" xmlns="http://www.w3.org/2000/svg">
<g clip-path="url(#clip0_89_2)">
<path d="M13.0442 1.90048L13.2552 2.00668C13.1863 1.96668 13.1159 1.93221 13.0442 1.90048Z" fill="#140A46" stroke="white" stroke-width="0.827586" stroke-linecap="round" stroke-linejoin="round"/>
<path d="M14.4194 3.31839C14.1338 2.7239 13.7449 2.28528 13.2552 2.00666L13.0442 1.90047L13.0276 1.89356C12.589 1.69632 12.0883 1.62183 11.5256 1.66873C11.5228 1.66873 11.52 1.66873 11.5173 1.67011C10.8566 1.7239 10.1504 1.96942 9.40006 2.40252C8.64695 2.83839 7.93797 3.41081 7.27591 4.12254C7.20832 4.19564 7.14073 4.26873 7.07591 4.34321C6.49522 4.99287 5.98487 5.69908 5.54487 6.4577C5.05522 7.30321 4.66763 8.18873 4.38073 9.11425C4.11177 9.98597 3.96835 10.8329 3.95318 11.6508C3.9518 11.7018 3.95178 11.7515 3.95178 11.8011C3.95178 12.666 4.09522 13.3956 4.38073 13.9915C4.42625 14.0852 4.47315 14.1749 4.52418 14.2604C4.79177 14.7197 5.13246 15.0687 5.54487 15.3032C6.03591 15.5832 6.61246 15.6963 7.27591 15.6411C7.93797 15.5873 8.64695 15.3418 9.40006 14.9073C10.1532 14.4715 10.8621 13.899 11.5256 13.1874C12.1876 12.477 12.7642 11.6977 13.2552 10.8522C13.7449 10.0067 14.1338 9.12115 14.4194 8.19563C14.7049 7.27011 14.8483 6.37356 14.8483 5.50873C14.8483 4.6439 14.7049 3.91425 14.4194 3.31839ZM12.669 6.81495L11.28 11.3211L7.76556 13.3501C7.46625 13.5225 7.2097 13.5487 6.99591 13.4274C6.96556 13.4094 6.93661 13.3901 6.9104 13.3653C6.75316 13.2356 6.67592 13.0232 6.67592 12.7281V9.25909L8.15868 6.54873L9.27728 4.50323L9.40006 4.2784L9.53109 4.35701L9.9104 4.58321L9.98626 4.62873L9.9104 5.17495L9.8442 5.64942L9.61797 7.2784L11.4649 6.21219L11.8842 5.97081L12.669 5.51702V6.81495Z" fill="#140A46" stroke="white" stroke-width="0.827586" stroke-linecap="round" stroke-linejoin="round"/>
<path d="M11.28 11.3211L7.76554 13.3501C7.46623 13.5225 7.20968 13.5487 6.99589 13.4274C6.96554 13.4094 6.93659 13.3901 6.91039 13.3653C6.75314 13.2356 6.6759 13.0232 6.6759 12.728V11.0066L8.52141 9.94183L11.28 11.3211Z" fill="#140A46" stroke="white" stroke-width="0.827586" stroke-linecap="round" stroke-linejoin="round"/>
<path d="M12.669 6.81496L11.28 11.3212L8.52136 9.94186L9.37929 7.15841L9.61791 7.27841L11.4648 6.21222L11.7876 6.37358L12.669 6.81496Z" fill="#140A46" stroke="white" stroke-width="0.827586" stroke-linecap="round" stroke-linejoin="round"/>
<path d="M9.98628 4.62874L9.91042 5.17496L9.84421 5.64945L9.61799 7.27841L9.37937 7.15841L8.15869 6.54876L9.2773 4.50324L9.40007 4.27841L9.53111 4.35703L9.91042 4.58324L9.98628 4.62874Z" fill="#140A46" stroke="white" stroke-width="0.827586" stroke-linecap="round" stroke-linejoin="round"/>
<path d="M12.669 5.51703V6.81496L11.7876 6.37358L11.4648 6.21222L11.8842 5.97084L12.669 5.51703Z" fill="#140A46" stroke="white" stroke-width="0.827586" stroke-linecap="round" stroke-linejoin="round"/>
<path d="M13.0276 1.89359C12.589 1.69635 12.0883 1.62186 11.5255 1.66876C11.5228 1.66876 11.52 1.66876 11.5172 1.67014C10.8565 1.72393 10.1504 1.96945 9.40001 2.40255C8.6469 2.83842 7.93792 3.41083 7.27585 4.12255C7.20827 4.19566 7.14068 4.26876 7.07585 4.34324C6.49516 4.9929 5.98482 5.69911 5.54482 6.45773C5.05516 7.30324 4.66758 8.18876 4.38068 9.11428C4.11172 9.986 3.96829 10.8329 3.95312 11.6508C3.95174 11.7019 3.95173 11.7515 3.95173 11.8012C3.95173 12.666 4.09516 13.3957 4.38068 13.9915C4.4262 14.0853 4.47309 14.1749 4.52413 14.2604C4.79172 14.7197 5.13241 15.0687 5.54482 15.3032L3.0138 14.037L2.99723 14.0301C2.92551 13.9984 2.85516 13.9639 2.7862 13.9239C2.29654 13.6453 1.90896 13.2067 1.62206 12.6122C1.33654 12.0163 1.19312 11.2867 1.19312 10.4219C1.19312 9.55704 1.33654 8.66049 1.62206 7.73497C1.90896 6.80945 2.29654 5.92393 2.7862 5.07842C3.27723 4.2329 3.85378 3.45359 4.51723 2.74324C5.1793 2.03152 5.88828 1.45911 6.64138 1.02324C7.39449 0.588755 8.10345 0.343246 8.7669 0.289452C9.42897 0.23428 10.0055 0.347377 10.4966 0.627377L13.0276 1.89359Z" fill="#140A46" stroke="white" stroke-width="0.827586" stroke-linecap="round" stroke-linejoin="round"/>
</g>
<defs>
<clipPath id="clip0_89_2">
<rect width="16" height="16" fill="white"/>
</clipPath>
</defs>
</svg>
