<svg width="416" height="338" viewBox="0 0 416 338" fill="none" xmlns="http://www.w3.org/2000/svg">
<g clip-path="url(#clip0_34_401)">
<path d="M233.299 21.7031L224.357 -7.51538L374.171 27.0164L383.113 56.2338L233.299 21.7031Z" fill="#140A46" stroke="white" stroke-width="3.45455" stroke-linecap="round" stroke-linejoin="round"/>
<path d="M330.565 112.026L321.623 82.8082L333.794 85.6141L348.658 89.0248L396.526 100.06L405.468 129.278L330.565 112.026Z" fill="#140A46" stroke="white" stroke-width="3.45455" stroke-linecap="round" stroke-linejoin="round"/>
<path d="M304.102 159.309C308.036 152.157 309.361 143.53 308.077 133.427L308.393 133.126L330.565 112.025L405.468 129.277L371.012 162.068L356.141 158.631L343.97 155.825L333.241 166.018L304.102 159.309Z" fill="#140A46" stroke="white" stroke-width="3.45455" stroke-linecap="round" stroke-linejoin="round"/>
<path d="M352.912 185.042L343.97 155.825L356.141 158.631L371.012 162.068L418.881 173.104L427.823 202.321L352.912 185.042Z" fill="#140A46" stroke="white" stroke-width="3.45455" stroke-linecap="round" stroke-linejoin="round"/>
<path d="M307.754 228.018L330.713 206.152L352.912 185.042L427.823 202.321L382.665 245.297L307.754 228.018Z" fill="#140A46" stroke="white" stroke-width="3.45455" stroke-linecap="round" stroke-linejoin="round"/>
<path d="M307.754 228.018L298.812 198.8L333.241 166.018L343.97 155.825L352.912 185.042L330.713 206.151L307.754 228.018Z" fill="#140A46" stroke="white" stroke-width="3.45455" stroke-linecap="round" stroke-linejoin="round"/>
<path d="M298.999 104.339C303.181 100.377 307.335 96.423 310.948 92.9849C316.818 87.3981 321.198 83.2294 321.623 82.8078L330.565 112.025L308.393 133.126L308.024 133.064C307.493 128.853 306.51 124.402 305.074 119.71C303.483 114.512 301.476 109.383 298.999 104.339Z" fill="#140A46" stroke="white" stroke-width="3.45455" stroke-linecap="round" stroke-linejoin="round"/>
<path d="M221.035 33.358L233.299 21.7034L383.113 56.2341L348.657 89.0246L333.794 85.6141L321.623 82.8082C321.198 83.2298 316.818 87.3985 310.947 92.9853L289.367 88.0152C283.408 79.4016 276.066 71.0361 267.359 62.9718C263.531 59.4201 259.697 56.1328 255.803 53.1262C244.512 44.3366 232.91 37.7704 221.035 33.358Z" fill="#140A46" stroke="white" stroke-width="3.45455" stroke-linecap="round" stroke-linejoin="round"/>
<path d="M187.536 27.546L224.358 -7.5127L233.3 21.7034L221.035 33.358C216.666 31.7506 212.263 30.4158 207.817 29.415C200.662 27.7563 193.94 27.1313 187.536 27.546Z" fill="#140A46" stroke="white" stroke-width="3.45455" stroke-linecap="round" stroke-linejoin="round"/>
</g>
<defs>
<clipPath id="clip0_34_401">
<rect width="368" height="368" fill="white" transform="translate(459.584 229.889) rotate(162.983)"/>
</clipPath>
</defs>
</svg>
