<svg width="372" height="393" viewBox="0 0 372 393" fill="none" xmlns="http://www.w3.org/2000/svg">
<g clip-path="url(#clip0_34_391)">
<path d="M105.339 245.134L98.5711 274.931L-14.2483 170.488L-7.4812 140.692L105.339 245.134Z" fill="#140A46" stroke="white" stroke-width="3.45455" stroke-linecap="round" stroke-linejoin="round"/>
<path d="M65.8497 118.408L59.0826 148.204L49.9173 139.719L38.7166 129.37L2.66962 95.9969L9.43677 66.2005L65.8497 118.408Z" fill="#140A46" stroke="white" stroke-width="3.45455" stroke-linecap="round" stroke-linejoin="round"/>
<path d="M112.318 90.5384C105.349 94.7878 99.9105 101.615 96.0021 111.019L95.5783 111.123L65.8496 118.408L9.43663 66.2008L55.6342 54.8796L66.8288 65.2554L75.9941 73.7408L90.371 70.2305L112.318 90.5384Z" fill="#140A46" stroke="white" stroke-width="3.45455" stroke-linecap="round" stroke-linejoin="round"/>
<path d="M82.7613 43.9445L75.9941 73.7409L66.8289 65.2552L55.6342 54.8797L19.5874 21.506L26.3545 -8.2901L82.7613 43.9445Z" fill="#140A46" stroke="white" stroke-width="3.45455" stroke-linecap="round" stroke-linejoin="round"/>
<path d="M143.309 29.1069L112.517 36.6651L82.7614 43.9445L26.3546 -8.29009L86.902 -23.1279L143.309 29.1069Z" fill="#140A46" stroke="white" stroke-width="3.45455" stroke-linecap="round" stroke-linejoin="round"/>
<path d="M143.308 29.1068L136.541 58.9031L90.3707 70.2304L75.9938 73.7408L82.7609 43.9444L112.517 36.6653L143.308 29.1068Z" fill="#140A46" stroke="white" stroke-width="3.45455" stroke-linecap="round" stroke-linejoin="round"/>
<path d="M89.4163 140.771C83.8187 142.13 78.2484 143.495 73.4046 144.682C65.5335 146.611 59.6604 148.05 59.0821 148.205L65.8492 118.408L95.578 111.123L95.8672 111.36C94.2341 115.278 92.8743 119.629 91.7876 124.413C90.5836 129.715 89.775 135.163 89.4163 140.771Z" fill="#140A46" stroke="white" stroke-width="3.45455" stroke-linecap="round" stroke-linejoin="round"/>
<path d="M121.774 241.119L105.339 245.133L-7.48109 140.691L38.7165 129.37L49.9173 139.719L59.0826 148.204C59.6609 148.05 65.5339 146.61 73.4051 144.682L89.6581 159.723C90.547 170.159 92.7581 181.068 96.3038 192.394C97.8591 197.378 99.5515 202.137 101.435 206.681C106.862 219.921 113.664 231.386 121.774 241.119Z" fill="#140A46" stroke="white" stroke-width="3.45455" stroke-linecap="round" stroke-linejoin="round"/>
<path d="M147.951 262.816L98.5719 274.928L105.339 245.133L121.774 241.119C124.766 244.686 127.923 248.033 131.283 251.112C136.667 256.108 142.188 259.992 147.951 262.816Z" fill="#140A46" stroke="white" stroke-width="3.45455" stroke-linecap="round" stroke-linejoin="round"/>
</g>
<defs>
<clipPath id="clip0_34_391">
<rect width="368" height="368" fill="white" transform="translate(12.5022 -48) rotate(12.7956)"/>
</clipPath>
</defs>
</svg>
