<svg width="200" height="200" viewBox="0 0 200 200" fill="none" xmlns="http://www.w3.org/2000/svg">
<path d="M173.95 26.1345L148.286 70.4538L142.555 80.353L142.084 81.1765L132.185 98.2857L122.874 114.353L121.092 117.429L116.252 125.782L105.143 144.975L104.773 145.63L103.933 147.059V147.076L100.823 152.437L99.5462 151.714L89.3613 145.899L73.563 136.891L82.5378 121.395L100.823 131.832L107.008 121.143L111.832 112.807L113.613 109.731L122.924 93.6471L132.823 76.5378L133.916 74.6555L139.025 65.8151L164.958 21.0084L173.95 26.1345Z" fill="#BE96F1" stroke="white" stroke-width="0.806723" stroke-linecap="round" stroke-linejoin="round"/>
<path d="M186.773 91.0422V105.748L167.529 116.857V138.941L154.706 146.353V124.269L135.462 135.378V120.656L154.706 109.546V87.4791L166.268 80.7901L167.529 80.0674V102.151L186.773 91.0422Z" fill="#BE96F1" stroke="white" stroke-width="0.806723" stroke-linecap="round" stroke-linejoin="round"/>
<path d="M154.706 124.269V146.353L121.092 129.546V128.202L122.353 128.823L135.462 135.378L154.706 124.269Z" fill="#BE96F1" stroke="white" stroke-width="0.806723" stroke-linecap="round" stroke-linejoin="round"/>
<path d="M146.689 31.7476C141.445 30.6048 135.731 30.6552 129.529 31.8989C128.655 32.0669 127.781 32.2854 126.907 32.5207C121.899 33.8148 116.672 35.9661 111.193 39.0249C110.739 39.2602 110.269 39.5291 109.798 39.798C100.924 44.9241 92.5881 51.6636 84.7898 60.0333C76.9914 68.4031 70.2015 77.5627 64.42 87.5123C60.6889 93.9829 57.4452 100.622 54.7225 107.479C54.6721 107.596 54.6385 107.697 54.5881 107.815C53.1595 111.411 51.8654 115.092 50.7225 118.806C50.1175 120.756 49.5629 122.706 49.0587 124.638C49.0082 124.823 48.9578 125.008 48.9242 125.193C46.7561 133.832 45.6637 142.235 45.6637 150.42C45.6637 154.504 45.9326 158.319 46.4704 161.899C47.2772 167.243 48.7057 172 50.7225 176.202C51.1427 177.076 51.5797 177.933 52.0335 178.74C55.2435 184.487 59.378 188.79 64.42 191.664L30.8066 174.857C25.0419 171.563 20.4705 166.42 17.1091 159.395C13.731 152.386 12.0503 143.798 12.0503 133.613C12.0503 123.428 13.731 112.89 17.1091 102C20.4705 91.0921 25.0419 80.672 30.8066 70.7056C36.5881 60.756 43.378 51.5964 51.1763 43.2266C58.9746 34.8569 67.3108 28.1174 76.1847 22.9913C83.1427 18.9745 89.7141 16.3527 95.9158 15.0922C102.117 13.8485 107.832 13.7981 113.075 14.9409L122.42 19.6132L131.697 24.2518L146.689 31.7476Z" fill="#BE96F1" stroke="white" stroke-width="0.806723" stroke-linecap="round" stroke-linejoin="round"/>
<path d="M129.042 156.924L138.672 162.605C134.285 167.579 129.68 172.134 124.874 176.269C120.067 180.387 115.042 183.966 109.798 186.992C100.924 192.118 92.5879 194.992 84.7896 195.63C76.9913 196.286 70.2014 194.958 64.4199 191.664C59.3779 188.79 55.2434 184.487 52.0333 178.739C51.5795 177.933 51.1426 177.076 50.7224 176.202C48.7056 172 47.277 167.243 46.4703 161.899C45.9325 158.319 45.6636 154.504 45.6636 150.42C45.6636 142.235 46.756 133.832 48.9241 125.193C48.9577 125.008 49.0081 124.823 49.0585 124.638C49.5627 122.706 50.1174 120.756 50.7224 118.806C51.8653 115.092 53.1594 111.411 54.5879 107.815C54.6384 107.697 54.672 107.596 54.7224 107.479C57.4451 100.622 60.6888 93.9829 64.4199 87.5123C70.2014 77.5627 76.9913 68.403 84.7896 60.0333C92.5879 51.6635 100.924 44.924 109.798 39.798C110.269 39.5291 110.739 39.2602 111.193 39.0249C116.672 35.9661 121.899 33.8148 126.907 32.5207C127.781 32.2854 128.655 32.0669 129.529 31.8988C135.731 30.6551 141.445 30.6047 146.689 31.7476L137.378 47.9661C133.327 47.3778 128.991 47.5795 124.403 48.5711C121.697 49.1593 118.89 50.0837 116 51.361C113.983 52.235 111.916 53.2938 109.798 54.5207C105.294 57.1257 101.008 60.1677 96.9241 63.6803C88.1174 71.2434 80.3022 80.9072 73.4787 92.6887C69.6804 99.277 66.5711 105.798 64.235 112.235C64.1174 112.537 63.9997 112.84 63.8989 113.143C61.8821 118.773 60.4367 124.353 59.5627 129.882C59.4787 130.319 59.4283 130.739 59.3611 131.159C58.7728 135.143 58.4871 139.092 58.4871 143.008C58.4871 150.285 59.4787 156.487 61.4787 161.647C63.3442 166.554 66.1342 170.521 69.8148 173.529C70.9409 174.454 72.1678 175.294 73.4787 176.034C83.4787 181.731 95.5795 180.471 109.798 172.269C113.227 170.303 116.538 168.016 119.748 165.428C122.958 162.84 126.05 160 129.042 156.924Z" fill="#BE96F1" stroke="white" stroke-width="0.806723" stroke-linecap="round" stroke-linejoin="round"/>
<path d="M164.958 21.0084L139.025 65.8151L133.915 74.6554L132.823 76.5378L122.924 93.647L113.613 109.731L111.831 112.807L107.008 121.143L100.823 131.832L82.5373 121.395L77.0415 118.655L67.7979 114.017L96.9239 63.6807C101.008 60.168 105.294 57.126 109.798 54.521C111.915 53.2941 113.983 52.2353 116 51.3613C118.89 50.084 121.697 49.1596 124.403 48.5714C128.991 47.5798 133.327 47.3781 137.378 47.9664L146.689 31.7479L131.697 24.2521L122.42 19.6134L131.344 4.20166L164.958 21.0084Z" fill="#BE96F1" stroke="white" stroke-width="0.806723" stroke-linecap="round" stroke-linejoin="round"/>
<path d="M99.5457 151.714C99.5457 151.714 99.5121 151.748 99.4785 151.764L88.7726 146.42L67.2096 135.63L59.3608 131.159C59.4281 130.739 59.4785 130.319 59.5625 129.882L68.0667 134.151L73.5625 136.89L89.3608 145.899L99.5457 151.714Z" fill="#BE96F1" stroke="white" stroke-width="0.806723" stroke-linecap="round" stroke-linejoin="round"/>
<path d="M154.706 87.4787V109.546L134.756 99.5627L132.185 98.2854L142.084 81.1761L153.159 86.7056L154.706 87.4787Z" fill="#BE96F1" stroke="white" stroke-width="0.806723" stroke-linecap="round" stroke-linejoin="round"/>
<path d="M154.706 109.546L135.462 120.656L133.916 119.882L122.874 114.353L132.185 98.2858L134.756 99.5631L154.706 109.546Z" fill="#BE96F1" stroke="white" stroke-width="0.806723" stroke-linecap="round" stroke-linejoin="round"/>
<path d="M135.462 120.655V135.378L122.353 128.823L121.092 128.202L116.252 125.781L121.092 117.429L122.874 114.353L133.916 119.882L135.462 120.655Z" fill="#BE96F1" stroke="white" stroke-width="0.806723" stroke-linecap="round" stroke-linejoin="round"/>
<path d="M186.773 91.0424L167.529 102.152V81.429L186.773 91.0424Z" fill="#BE96F1" stroke="white" stroke-width="0.806723" stroke-linecap="round" stroke-linejoin="round"/>
<path d="M167.529 80.0671L166.269 80.7898L154.706 87.4788L153.16 86.7057L142.084 81.1763L142.555 80.3528L148.286 70.4536L167.529 80.0671Z" fill="#BE96F1" stroke="white" stroke-width="0.806723" stroke-linecap="round" stroke-linejoin="round"/>
<path d="M129.042 156.924C126.05 160 122.958 162.84 119.747 165.428C116.537 168.017 113.226 170.303 109.798 172.269C95.5794 180.471 83.4785 181.731 73.4785 176.034C72.1676 175.294 70.9407 174.454 69.8146 173.529C66.134 170.521 63.3441 166.554 61.4785 161.647C66.1004 160.521 71.0079 158.453 76.1844 155.462C79.613 153.495 82.9239 151.21 86.134 148.622C87.0247 147.899 87.8987 147.176 88.7726 146.42L99.4785 151.764L100.823 152.437L103.932 147.075L104.773 145.63L105.142 144.974L129.042 156.924Z" fill="#BE96F1" stroke="white" stroke-width="0.806723" stroke-linecap="round" stroke-linejoin="round"/>
<path d="M82.5378 121.395L73.563 136.89L68.0672 134.151L59.563 129.882C60.4369 124.353 61.8823 118.773 63.8991 113.143C64 112.84 64.1176 112.538 64.2353 112.235L67.7983 114.016L77.042 118.655L82.5378 121.395Z" fill="#BE96F1" stroke="white" stroke-width="0.806723" stroke-linecap="round" stroke-linejoin="round"/>
</svg>
