<svg width="200" height="200" viewBox="0 0 200 200" fill="none" xmlns="http://www.w3.org/2000/svg">
<path d="M144.468 81.4517V127.161L129.29 119.581L113.177 111.516V99.5162L140.661 83.6452L144.468 81.4517Z" fill="#BE96F1" stroke="white" stroke-width="0.774194" stroke-linecap="round" stroke-linejoin="round"/>
<path d="M161.547 58.5323L172.919 51.9678V38.9032L161.547 45.4676V19.3549L148.676 26.7903L140.66 31.4194L112.209 47.8387L80.9184 65.9033L75.2248 69.1936L59.1119 78.4999V196.032L161.547 136.887V110.774L172.919 104.194V91.1452L161.547 97.7097V84.6452L172.919 78.0807V65.016L161.547 71.5968V58.5323ZM107.483 148.516L76.1766 166.581V140.468L83.241 136.387L107.483 122.387V148.516ZM107.483 115.871L77.1766 133.355L76.1766 133.936V88.2258L80.9184 85.4839L107.483 70.1613V115.871ZM144.467 127.161L113.176 145.226V99.5162L140.66 83.6452L144.467 81.4516V127.161ZM144.467 74.9194L142.612 75.9839L140.66 77.1128L113.176 92.9839V66.871L120.225 62.8063L140.66 51L142.628 49.8708L144.467 48.8065V74.9194Z" fill="#BE96F1" stroke="white" stroke-width="0.774194" stroke-linecap="round" stroke-linejoin="round"/>
<path d="M144.468 127.161L113.177 145.226V111.516L129.29 119.581L144.468 127.161Z" fill="#BE96F1" stroke="white" stroke-width="0.774194" stroke-linecap="round" stroke-linejoin="round"/>
<path d="M144.466 48.8064V74.9193L130.386 67.887L120.224 62.8062L140.66 50.9999L142.628 49.8708L144.466 48.8064Z" fill="#BE96F1" stroke="white" stroke-width="0.774194" stroke-linecap="round" stroke-linejoin="round"/>
<path d="M144.468 74.9193L142.613 75.9839L140.661 77.1127L113.177 92.9839V66.871L120.226 62.8063L130.387 67.8871L144.468 74.9193Z" fill="#BE96F1" stroke="white" stroke-width="0.774194" stroke-linecap="round" stroke-linejoin="round"/>
<path d="M107.483 70.1613V115.871L105.531 114.887L80.9184 102.597L76.1766 100.226V88.2258L80.9184 85.4838L107.483 70.1613Z" fill="#BE96F1" stroke="white" stroke-width="0.774194" stroke-linecap="round" stroke-linejoin="round"/>
<path d="M107.483 115.871L77.1766 133.355L76.1766 133.936V100.226L80.9184 102.597L105.531 114.887L107.483 115.871Z" fill="#BE96F1" stroke="white" stroke-width="0.774194" stroke-linecap="round" stroke-linejoin="round"/>
<path d="M107.483 122.387V148.516L93.4023 141.484L83.241 136.387L107.483 122.387Z" fill="#BE96F1" stroke="white" stroke-width="0.774194" stroke-linecap="round" stroke-linejoin="round"/>
<path d="M107.483 148.516L76.1766 166.581V140.468L83.241 136.387L93.4023 141.484L107.483 148.516Z" fill="#BE96F1" stroke="white" stroke-width="0.774194" stroke-linecap="round" stroke-linejoin="round"/>
<path d="M161.547 19.3549L148.676 26.7903L140.661 31.4194L112.209 47.8387L80.9184 65.9033L75.2248 69.1936L59.1119 78.4999L45.0313 71.4515L26.8539 62.3708L129.289 3.22583L161.547 19.3549Z" fill="#BE96F1" stroke="white" stroke-width="0.774194" stroke-linecap="round" stroke-linejoin="round"/>
<path d="M59.1119 78.4999V196.032L26.8539 179.903V62.3708L45.0313 71.4515L59.1119 78.4999Z" fill="#BE96F1" stroke="white" stroke-width="0.774194" stroke-linecap="round" stroke-linejoin="round"/>
<path d="M172.918 38.9034L161.547 33.226L172.918 38.9034Z" fill="#BE96F1"/>
<path d="M172.918 38.9034L161.547 33.226" stroke="white" stroke-width="0.774194" stroke-linecap="round" stroke-linejoin="round"/>
<path d="M172.918 65.016L161.547 71.5968V59.3387L172.918 65.016Z" fill="#BE96F1" stroke="white" stroke-width="0.774194" stroke-linecap="round" stroke-linejoin="round"/>
<path d="M172.918 91.1452L161.547 97.7097V85.4678L172.918 91.1452Z" fill="#BE96F1" stroke="white" stroke-width="0.774194" stroke-linecap="round" stroke-linejoin="round"/>
</svg>
