<svg width="457" height="457" viewBox="0 0 457 457" fill="none" xmlns="http://www.w3.org/2000/svg">
<path d="M372.554 54.2792L378.581 57.3122C376.611 56.1698 374.602 55.1853 372.554 54.2792Z" fill="#140A46" stroke="white" stroke-width="0.827586" stroke-linecap="round" stroke-linejoin="round"/>
<path d="M411.829 94.7763C403.675 77.7973 392.566 65.2699 378.581 57.3122L372.554 54.2792L372.08 54.0819C359.553 48.4485 345.253 46.3212 329.18 47.6606C329.102 47.6606 329.022 47.6606 328.944 47.7C310.074 49.2364 289.904 56.2486 268.474 68.6184C246.964 81.0671 226.715 97.4162 207.806 117.744C205.875 119.832 203.945 121.919 202.093 124.046C185.508 142.601 170.932 162.771 158.366 184.438C144.381 208.587 133.311 233.878 125.117 260.312C117.435 285.209 113.339 309.397 112.905 332.758C112.866 334.216 112.865 335.634 112.865 337.052C112.865 361.753 116.962 382.592 125.117 399.609C126.417 402.288 127.756 404.849 129.214 407.291C136.856 420.41 146.587 430.376 158.366 437.074C172.39 445.071 188.857 448.301 207.806 446.725C226.715 445.189 246.964 438.177 268.474 425.767C289.983 413.319 310.232 396.97 329.18 376.644C348.09 356.355 364.557 334.098 378.581 309.949C392.566 285.8 403.675 260.509 411.829 234.075C419.984 207.641 424.081 182.035 424.081 157.335C424.081 132.634 419.984 111.795 411.829 94.7763ZM361.838 194.642L322.168 323.343L221.791 381.293C213.242 386.217 205.915 386.965 199.809 383.498C198.942 382.986 198.115 382.435 197.367 381.726C192.876 378.023 190.67 371.956 190.67 363.526V264.449L233.019 187.038L264.967 128.617L268.474 122.195L272.216 124.44L283.049 130.901L285.216 132.201L283.049 147.802L281.159 161.353L274.697 207.878L327.447 177.426L339.423 170.532L361.838 157.572V194.642Z" fill="#140A46" stroke="white" stroke-width="0.827586" stroke-linecap="round" stroke-linejoin="round"/>
<path d="M322.168 323.343L221.791 381.293C213.242 386.217 205.915 386.965 199.809 383.499C198.942 382.987 198.115 382.435 197.366 381.726C192.876 378.023 190.669 371.956 190.669 363.526V314.361L243.379 283.949L322.168 323.343Z" fill="#140A46" stroke="white" stroke-width="0.827586" stroke-linecap="round" stroke-linejoin="round"/>
<path d="M361.838 194.642L322.168 323.343L243.379 283.949L267.882 204.451L274.697 207.878L327.447 177.427L336.665 182.035L361.838 194.642Z" fill="#140A46" stroke="white" stroke-width="0.827586" stroke-linecap="round" stroke-linejoin="round"/>
<path d="M285.216 132.201L283.049 147.802L281.159 161.353L274.697 207.878L267.882 204.451L233.019 187.039L264.967 128.617L268.474 122.195L272.216 124.441L283.049 130.901L285.216 132.201Z" fill="#140A46" stroke="white" stroke-width="0.827586" stroke-linecap="round" stroke-linejoin="round"/>
<path d="M361.838 157.571V194.642L336.665 182.035L327.447 177.427L339.423 170.533L361.838 157.571Z" fill="#140A46" stroke="white" stroke-width="0.827586" stroke-linecap="round" stroke-linejoin="round"/>
<path d="M372.081 54.0823C359.553 48.4488 345.253 46.3215 329.18 47.661C329.102 47.661 329.022 47.661 328.944 47.7004C310.074 49.2367 289.904 56.2489 268.474 68.6188C246.964 81.0675 226.715 97.4161 207.806 117.744C205.875 119.832 203.945 121.919 202.094 124.047C185.508 142.602 170.933 162.772 158.366 184.438C144.381 208.587 133.311 233.879 125.117 260.312C117.435 285.209 113.339 309.398 112.905 332.759C112.866 334.216 112.865 335.634 112.865 337.053C112.865 361.753 116.962 382.593 125.117 399.609C126.417 402.288 127.756 404.849 129.214 407.291C136.856 420.41 146.587 430.376 158.366 437.073L86.0773 400.909L85.6041 400.712C83.5556 399.806 81.5465 398.822 79.5768 397.679C65.5917 389.723 54.5219 377.196 46.3279 360.217C38.1733 343.198 34.0768 322.358 34.0768 297.658C34.0768 272.958 38.1733 247.351 46.3279 220.918C54.5219 194.484 65.5917 169.193 79.5768 145.044C93.6012 120.895 110.068 98.6374 129.017 78.3492C147.926 58.0217 168.175 41.673 189.685 29.2242C211.194 16.8149 231.443 9.80293 250.392 8.26655C269.301 6.69077 285.768 9.92092 299.792 17.918L372.081 54.0823Z" fill="#140A46" stroke="white" stroke-width="0.827586" stroke-linecap="round" stroke-linejoin="round"/>
</svg>
