<svg width="398" height="435" viewBox="0 0 398 435" fill="none" xmlns="http://www.w3.org/2000/svg">
<g id="left1">
<path d="M151.306 433.096L62.0204 388.499L60.5156 387.769C58.646 386.675 57.0956 385.034 55.91 382.89C53.9948 379.607 53.0832 375.457 53.22 370.532C53.2656 368.708 53.4476 366.884 53.7668 365.015L86.1888 381.249L133.338 404.824L149.39 364.787L160.198 370.213L147.84 400.629C145.651 406.055 144.511 411.208 144.42 416.132C144.283 421.057 145.195 425.207 147.11 428.491C148.204 430.497 149.618 432.047 151.306 433.096Z" stroke="#140A46" stroke-width="0.96" stroke-linecap="round" stroke-linejoin="round"/>
<path d="M222.532 334.189V400.765L169.226 431.545C164.393 434.327 160.015 435.422 156.002 434.829C154.224 434.555 152.674 434.008 151.306 433.096C149.618 432.047 148.204 430.497 147.11 428.49C145.195 425.207 144.283 421.057 144.42 416.132C144.511 411.208 145.651 406.055 147.84 400.629L160.198 370.213L216.969 337.382L218.383 336.606L220.663 335.284L222.532 334.189Z" stroke="#140A46" stroke-width="0.96" stroke-linecap="round" stroke-linejoin="round"/>
<path d="M222.532 334.189L220.663 335.284L218.383 336.606L216.969 337.382L160.198 370.213L149.39 364.787L166.354 322.516L191.342 325.571L190.521 322.333L189.929 319.916L189.336 317.591L218.383 332.138L222.532 334.189Z" stroke="#140A46" stroke-width="0.96" stroke-linecap="round" stroke-linejoin="round"/>
</g>

<g id="left2">
<path d="M191.342 325.571L166.354 322.516L149.39 364.787L133.338 404.824L111.178 366.793L109.764 364.331C107.575 360.592 106.572 355.849 106.663 350.104C106.709 348.052 106.936 345.908 107.301 343.765C107.985 339.889 109.171 335.877 110.858 331.682L116.649 317.089L91.98 314.262L102.194 305.416L171.415 245.543L178.483 273.906L189.336 317.591L189.929 319.916L190.521 322.333L191.342 325.571Z" stroke="#140A46" stroke-width="0.96" stroke-linecap="round" stroke-linejoin="round"/>
<path d="M133.339 404.824L86.1888 381.249L53.7668 365.015L42.1388 359.224L18.5637 318.731C16.3749 314.992 15.372 310.249 15.4632 304.504C15.6 298.758 17.0133 292.602 19.6581 286.082L22.3032 279.424L65.4864 301.038L89.2436 312.895L91.98 314.262L116.649 317.089L110.858 331.682C109.171 335.877 107.985 339.889 107.301 343.765C106.936 345.908 106.709 348.052 106.663 350.104C106.572 355.849 107.575 360.592 109.764 364.331L111.178 366.793L133.339 404.824Z" stroke="#140A46" stroke-width="0.96" stroke-linecap="round" stroke-linejoin="round"/>
<path d="M171.415 245.543L102.194 305.416L91.98 314.262L89.2436 312.895L65.486 301.038L22.3031 279.424L0.780029 268.662L80.2148 199.943L171.415 245.543Z" stroke="#140A46" stroke-width="0.96" stroke-linecap="round" stroke-linejoin="round"/>
</g>

<g id="right2">
<path d="M378.484 244.175L357.463 304.595C354.818 311.663 351.17 318.184 346.564 324.158C342.004 330.131 336.898 334.737 331.334 337.975L309.583 350.515V383.802L251.58 350.742L309.583 250.65V283.938L378.484 244.175Z" stroke="#140A46" stroke-width="0.96" stroke-linecap="round" stroke-linejoin="round"/>
<path d="M309.583 283.938V250.65L275.155 233.459L249.3 220.509L275.566 205.324L283.546 209.336L351.307 243.218L363.026 236.423L378.484 244.175L309.583 283.938Z" stroke="#140A46" stroke-width="0.96" stroke-linecap="round" stroke-linejoin="round"/>
<path d="M309.583 383.802L222.532 340.3V336.242L251.58 350.742L309.583 383.802Z" stroke="#140A46" stroke-width="0.96" stroke-linecap="round" stroke-linejoin="round"/>
<path d="M309.583 250.65L251.58 350.742L222.532 336.242V334.189L218.383 332.138L189.336 317.591L178.483 273.906L218.383 205.05L249.3 220.509L275.155 233.459L309.583 250.65Z" stroke="#140A46" stroke-width="0.96" stroke-linecap="round" stroke-linejoin="round"/>
</g>

<g id="right1">
<path d="M396.998 182.296C397.226 187.996 396.132 194.015 393.715 200.399C391.298 207.33 387.741 213.851 383.044 219.916C378.302 225.935 373.195 230.586 367.632 233.778L363.026 236.423L351.307 243.218L336.077 222.971L319.022 200.262L369.41 137.882L392.62 168.98C395.311 172.172 396.77 176.596 396.998 182.296Z" stroke="#140A46" stroke-width="0.96" stroke-linecap="round" stroke-linejoin="round"/>
<path d="M351.307 243.218L283.546 209.336L275.566 205.324L260.107 197.618L235.984 165.515L249.756 172.4L258.329 169.938H258.374L283.956 182.706L319.022 200.262L336.077 222.971L351.307 243.218Z" stroke="#140A46" stroke-width="0.96" stroke-linecap="round" stroke-linejoin="round"/>
<path d="M369.409 137.882L319.022 200.262L283.956 182.706L258.374 169.938L301.558 157.444L329.191 149.464L334.754 120.553L369.409 137.882Z" stroke="#140A46" stroke-width="0.96" stroke-linecap="round" stroke-linejoin="round"/>
</g>

<g id="top2">
<path d="M349.118 46.362L334.754 120.553L329.191 149.464L301.558 157.444L258.374 169.938H258.329L249.756 172.4L253.586 167.567L274.79 140.891L257.508 117.909L239.815 94.3332L229.464 80.5164L244.147 72.0348L280.581 51.0132C285.643 48.0492 290.431 46.7724 294.9 47.0916C297.089 47.2284 299.095 47.7756 300.828 48.7332C302.652 49.6908 304.248 51.0132 305.616 52.7916L324.449 78.0996L349.118 46.362Z" stroke="#140A46" stroke-width="0.96" stroke-linecap="round" stroke-linejoin="round"/>
<path d="M349.118 46.362L324.449 78.0996L305.616 52.7916C304.248 51.0132 302.652 49.6908 300.828 48.7332L253.221 24.9303L243.052 19.8688L257.918 0.762085L349.118 46.362Z" stroke="#140A46" stroke-width="0.96" stroke-linecap="round" stroke-linejoin="round"/>
<path d="M300.828 48.7332C299.095 47.7756 297.089 47.2284 294.9 47.0916C290.431 46.7724 285.643 48.0492 280.581 51.0132L244.147 72.0348L229.464 80.5164L138.264 34.9163L189.381 5.41329C194.443 2.44929 199.231 1.17253 203.7 1.49173C205.342 1.62853 206.892 1.94759 208.306 2.49479L209.992 3.31587L243.052 19.8687L253.221 24.9302L300.828 48.7332Z" stroke="#140A46" stroke-width="0.96" stroke-linecap="round" stroke-linejoin="round"/>
<path d="M274.79 140.891L253.586 167.567L249.756 172.4L235.984 165.515L230.467 162.779L231.698 159.815L232.747 157.124L239.724 139.933L243.235 131.224L235.848 121.42L249.254 128.123L274.79 140.891Z" stroke="#140A46" stroke-width="0.96" stroke-linecap="round" stroke-linejoin="round"/>
<path d="M274.79 140.891L249.254 128.123L235.848 121.42L225.36 107.512L221.849 102.815C221.119 101.857 220.298 101.082 219.432 100.58L218.383 100.079L168.36 75.0444H168.314L138.264 34.9164L229.464 80.5164L239.815 94.3332L257.508 117.909L274.79 140.891Z" stroke="#140A46" stroke-width="0.96" stroke-linecap="round" stroke-linejoin="round"/>
</g>

<g id="top1">
<path d="M243.235 131.224L239.724 139.933L232.747 157.125L231.698 159.815L230.467 162.779L210.949 211.069L161.246 205.598L187.192 141.119L196.814 117.27C197.042 116.678 197.27 116.085 197.589 115.538C199.322 111.525 201.602 108.196 204.247 105.642C205.797 104.046 207.485 102.769 209.309 101.72C212.866 99.6684 215.875 99.1212 218.383 100.079L219.432 100.58C220.298 101.082 221.119 101.857 221.849 102.815L225.36 107.512L235.848 121.42L243.235 131.224Z" stroke="#140A46" stroke-width="0.96" stroke-linecap="round" stroke-linejoin="round"/>
<path d="M218.383 100.079C215.875 99.1217 212.866 99.6689 209.309 101.721C207.485 102.77 205.797 104.046 204.247 105.642C201.602 108.196 199.322 111.525 197.589 115.538C197.27 116.085 197.042 116.678 196.814 117.27L187.192 141.119L161.246 205.598L70.046 159.998L105.614 71.6705C108.487 64.4201 112.682 59.2673 118.109 56.1209C121.802 53.9777 124.949 53.4305 127.502 54.5705L127.958 54.798L168.314 74.9993H168.36L218.383 100.079Z" stroke="#140A46" stroke-width="0.96" stroke-linecap="round" stroke-linejoin="round"/>
</g>

</svg>