<svg width="25" height="24" viewBox="0 0 25 24" fill="none" xmlns="http://www.w3.org/2000/svg">
<path d="M17.9236 8.93418C17.8354 9.10239 17.741 9.25829 17.6405 9.40188C17.5913 9.47367 17.5421 9.54136 17.4887 9.607C17.2118 9.96188 16.8959 10.2388 16.5431 10.4439L12.4487 12.807C11.9318 13.1065 11.4928 13.1496 11.1379 12.9342L11.1256 12.928C11.1051 12.9178 11.0867 12.9055 11.0682 12.8911C10.699 12.6285 10.5533 12.1588 10.6313 11.4819L10.7441 10.4337L10.8672 9.29931L10.9307 8.72085C11.0518 7.64598 11.4518 6.58547 12.1267 5.53521C12.6928 4.65316 13.341 3.95777 14.0713 3.447C14.2107 3.35059 14.3523 3.26034 14.4959 3.17624C15.4005 2.65521 16.1903 2.52803 16.8651 2.7988C16.9062 2.81521 16.9451 2.83367 16.9841 2.85213C17.5872 3.14341 17.9482 3.72598 18.0631 4.60393L18.3605 7.01829C18.4385 7.607 18.2928 8.24495 17.9236 8.93418Z" stroke="#140A46" stroke-width="0.410256" stroke-linecap="round" stroke-linejoin="round"/>
<path d="M21.8579 12.8644V13.7095C21.8579 14.29 21.6774 14.891 21.3184 15.5126C20.9574 16.1341 20.5246 16.5915 20.0179 16.8828L8.97379 23.2603C8.46712 23.5516 8.0343 23.5946 7.67328 23.3895C7.3143 23.1844 7.13379 22.7905 7.13379 22.21V21.3649C7.13379 20.8418 7.23635 20.2941 7.44353 19.7239C7.47225 19.6439 7.50302 19.5639 7.53584 19.4839C7.80456 18.8254 8.16148 18.2367 8.60661 17.7177C9.55635 16.6223 10.5225 15.6541 11.5051 14.8151C12.4876 13.9762 13.4846 13.2644 14.4958 12.6798C15.5092 12.0951 16.5061 11.6562 17.4866 11.3608C17.5769 11.3341 17.6671 11.3074 17.7553 11.2849C18.6456 11.0408 19.5215 10.9198 20.3851 10.9156C20.6005 10.9177 20.7953 10.9628 20.9676 11.0449L21.0025 11.0633C21.1748 11.1495 21.3246 11.2787 21.4558 11.4469C21.7246 11.7936 21.8579 12.2654 21.8579 12.8644Z" stroke="#140A46" stroke-width="0.410256" stroke-linecap="round" stroke-linejoin="round"/>
<path d="M20.9677 11.047C20.7953 10.9649 20.6005 10.9198 20.3851 10.9177C19.5215 10.9218 18.6456 11.0429 17.7553 11.287C17.6671 11.3095 17.5769 11.3362 17.4866 11.3629C16.5061 11.6583 15.5092 12.0972 14.4959 12.6819C13.4846 13.2665 12.4877 13.9782 11.5051 14.8172C10.5225 15.6562 9.55637 16.6244 8.60663 17.7198C8.1615 18.2388 7.80458 18.8275 7.53586 19.486C7.50304 19.566 7.47227 19.6459 7.44355 19.7259C7.23637 20.2962 7.13381 20.8439 7.13381 21.367V22.2121C7.13381 22.7926 7.31432 23.1865 7.67329 23.3916L3.57074 21.3403C3.21176 21.1352 3.03125 20.7413 3.03125 20.1608V19.3157C3.03125 18.7188 3.16458 18.0911 3.43329 17.4347C3.70201 16.7762 4.05894 16.1875 4.50407 15.6685C5.45381 14.5731 6.41996 13.6049 7.40252 12.7659C7.83945 12.3926 8.27637 12.0459 8.71945 11.7259L11.1256 12.928L11.1379 12.9342C11.4928 13.1495 11.9318 13.1065 12.4487 12.807L16.543 10.4439C16.8959 10.2388 17.2118 9.96186 17.4887 9.60698C17.542 9.54134 17.5912 9.47365 17.6405 9.40186L20.9677 11.047Z" stroke="#140A46" stroke-width="0.410256" stroke-linecap="round" stroke-linejoin="round"/>
<path d="M16.9841 2.85007C16.9451 2.83161 16.9061 2.81315 16.8651 2.79674C16.1902 2.52597 15.4005 2.65315 14.4959 3.17417C14.3523 3.25828 14.2107 3.34853 14.0712 3.44494C13.341 3.95571 12.6928 4.6511 12.1266 5.53315C11.4518 6.5834 11.0517 7.64392 10.9307 8.71879L10.8671 9.29725L10.7441 10.4316L10.6312 11.4798C10.5533 12.1567 10.6989 12.6265 11.0682 12.889C11.0866 12.9034 11.1051 12.9157 11.1256 12.926L8.71945 11.7239L7.16253 10.9465L7.14407 10.9383C7.08253 10.9116 7.02304 10.8788 6.9656 10.8378C6.59637 10.5752 6.45073 10.1055 6.52868 9.42853L6.82815 6.66751C6.94917 5.59264 7.34919 4.53212 8.02407 3.48187C8.69894 2.43161 9.48868 1.64596 10.3933 1.12289C11.2979 0.60186 12.0877 0.474687 12.7625 0.745456C12.8179 0.765969 12.8692 0.790582 12.9184 0.8193L12.9636 0.84186L16.9841 2.85007Z" stroke="#140A46" stroke-width="0.410256" stroke-linecap="round" stroke-linejoin="round"/>
</svg>
